<?xml version="1.0" encoding="UTF-8" standalone="no"?>
<!-- Created with Inkscape (http://www.inkscape.org/) -->

<svg
   width="90"
   height="41"
   viewBox="0 0 23.812499 10.847916"
   version="1.1"
   id="svg5"
   xmlns="http://www.w3.org/2000/svg"
   xmlns:svg="http://www.w3.org/2000/svg">
  <defs
     id="defs2">
    <rect
       x="320"
       y="360"
       width="130"
       height="160"
       id="rect45944" />
    <rect
       x="40"
       y="340"
       width="520"
       height="280"
       id="rect2741" />
    <rect
       x="40"
       y="340"
       width="520"
       height="280"
       id="rect2741-7" />
    <rect
       x="40"
       y="340"
       width="520"
       height="280"
       id="rect2741-9" />
    <rect
       x="40"
       y="340"
       width="520"
       height="280"
       id="rect2741-2" />
  </defs>
  <g
     id="g965"
     style="stroke:none">
    <g
       aria-label="N"
       transform="matrix(0.09138579,0,0,0.09138579,-3.9675896,-31.863067)"
       id="text2739"
       style="font-weight:bold;font-size:56px;line-height:1.25;font-family:Poppins;-inkscape-font-specification:'Poppins Bold';white-space:pre;shape-inside:url(#rect2741);stroke:none">
      <path
         d="M 78.64,389 H 69.064 L 53.048,364.752 V 389 h -9.576 v -39.312 h 9.576 l 16.016,24.36 v -24.36 h 9.576 z"
         id="path1132"
         style="stroke:none" />
    </g>
    <g
       aria-label="T"
       transform="matrix(0.09138579,0,0,0.09138579,5.126551,-31.856176)"
       id="text2739-6"
       style="font-weight:bold;font-size:56px;line-height:1.25;font-family:Poppins;-inkscape-font-specification:'Poppins Bold';white-space:pre;shape-inside:url(#rect2741-2);stroke:none">
      <path
         d="m 71.752,349.688 v 7.672 H 61.336 V 389 H 51.76 V 357.36 H 41.344 v -7.672 z"
         id="path1129"
         style="stroke:none" />
    </g>
    <g
       aria-label="O"
       transform="matrix(0.09138579,0,0,0.09138579,0.52588602,-31.905338)"
       id="text2739-3"
       style="font-weight:bold;font-size:56px;line-height:1.25;font-family:Poppins;-inkscape-font-specification:'Poppins Bold';white-space:pre;shape-inside:url(#rect2741-9);stroke:none">
      <path
         d="m 62.064,389.392 q -5.544,0 -10.192,-2.576 -4.592,-2.576 -7.336,-7.168 -2.688,-4.648 -2.688,-10.416 0,-5.768 2.688,-10.36 2.744,-4.592 7.336,-7.168 4.648,-2.576 10.192,-2.576 5.544,0 10.136,2.576 4.648,2.576 7.28,7.168 2.688,4.592 2.688,10.36 0,5.768 -2.688,10.416 -2.688,4.592 -7.28,7.168 -4.592,2.576 -10.136,2.576 z m 0,-8.736 q 4.704,0 7.504,-3.136 2.856,-3.136 2.856,-8.288 0,-5.208 -2.856,-8.288 -2.8,-3.136 -7.504,-3.136 -4.76,0 -7.616,3.08 -2.8,3.08 -2.8,8.344 0,5.208 2.8,8.344 2.856,3.08 7.616,3.08 z"
         id="path1126"
         style="stroke:none" />
    </g>
    <g
       aria-label="E"
       transform="matrix(0.08435138,0,0,0.09138579,9.3400858,-31.859644)"
       id="text2739-0"
       style="font-weight:bold;font-size:56px;line-height:1.25;font-family:Poppins;-inkscape-font-specification:'Poppins Bold';white-space:pre;shape-inside:url(#rect2741-7);stroke:none">
      <path
         d="m 53.048,357.36 v 7.952 h 12.824 v 7.392 H 53.048 v 8.624 H 67.552 V 389 h -24.08 v -39.312 h 24.08 v 7.672 z"
         id="path1123"
         style="stroke:none" />
    </g>
    <path
       id="path1120"
       style="stroke:none;stroke-width:0.181321;stroke-linejoin:round"
       d="M 0,4.86832 H 0.78834975 V 8.415894 H 0 Z" />
    <path
       id="path1117"
       style="stroke:none;stroke-width:0.181321;stroke-linejoin:round"
       d="m 2.3650494,4.8683248 h 0.7883497 v 3.547574 H 2.3650494 Z" />
    <path
       id="path1114"
       style="stroke:none;stroke-width:0.181321;stroke-linejoin:round"
       d="m 5.5184469,4.8683248 h 0.7883498 v 3.547574 H 5.5184469 Z" />
    <path
       id="path1111"
       style="stroke:none;stroke-width:0.181321;stroke-linejoin:round"
       d="m 4.3359232,4.8683248 h 0.7883497 v 3.547574 H 4.3359232 Z" />
    <path
       id="path1108"
       style="stroke:none;stroke-width:0.181321;stroke-linejoin:round"
       d="m 1.1825249,4.8683248 h 0.7883498 v 3.547574 H 1.1825249 Z" />
    <path
       id="path1105"
       style="stroke:none;stroke-width:0.181321;stroke-linejoin:round"
       d="m 7.4893227,4.8683248 h 0.7883497 v 3.547574 H 7.4893227 Z" />
    <path
       id="path1102"
       style="stroke:none;stroke-width:0.181321;stroke-linejoin:round"
       d="M 9.8543711,4.8683338 H 10.642721 V 8.4159079 H 9.8543711 Z" />
    <path
       id="path1099"
       style="stroke:none;stroke-width:0.181321;stroke-linejoin:round"
       d="M 8.6718473,4.8683338 H 9.4601971 V 8.4159079 H 8.6718473 Z" />
    <path
       id="path1096"
       style="stroke:none;stroke-width:0.181321;stroke-linejoin:round"
       d="m 11.825246,4.8683248 h 0.78835 v 3.547574 h -0.78835 z" />
    <path
       id="path1093"
       style="stroke:none;stroke-width:0.181321;stroke-linejoin:round"
       d="m 14.190296,4.8683295 h 0.78835 v 3.5475741 h -0.78835 z" />
    <path
       id="path1090"
       style="stroke:none;stroke-width:0.181321;stroke-linejoin:round"
       d="M 13.007771,4.8683295 H 13.79612 V 8.4159036 H 13.007771 Z" />
    <path
       id="path1087"
       style="stroke:none;stroke-width:0.181321;stroke-linejoin:round"
       d="M 0,8.4158945 H 0.39417487 V 10.780944 H 0 Z" />
    <path
       id="path1084"
       style="stroke:none;stroke-width:0.181321;stroke-linejoin:round"
       d="m 14.584471,8.4158945 h 0.394175 v 2.3650495 h -0.394175 z" />
    <path
       id="path1081"
       style="stroke:none;stroke-width:0.181321;stroke-linejoin:round"
       d="m 0,10.38677 h 14.978645 v 0.394175 H 0 Z" />
    <path
       id="path1078"
       style="stroke:none;stroke-width:0.302202;stroke-linejoin:round"
       d="m 1.4978647,8.4158993 h 0.15767 v 1.9708787 h -0.15767 z" />
    <path
       id="path1075"
       style="stroke:none;stroke-width:0.302202;stroke-linejoin:round"
       d="M 2.6803892,8.4158993 H 2.8380591 V 10.386778 H 2.6803892 Z" />
    <path
       id="path1072"
       style="stroke:none;stroke-width:0.302202;stroke-linejoin:round"
       d="m 4.6512637,8.4158993 h 0.15767 v 1.9708787 h -0.15767 z" />
    <path
       id="path1069"
       style="stroke:none;stroke-width:0.302202;stroke-linejoin:round"
       d="M 5.8337884,8.4158993 H 5.9914583 V 10.386778 H 5.8337884 Z" />
    <path
       id="path1066"
       style="stroke:none;stroke-width:0.302202;stroke-linejoin:round"
       d="m 7.8046627,8.4158993 h 0.15767 v 1.9708787 h -0.15767 z" />
    <path
       id="path1063"
       style="stroke:none;stroke-width:0.302202;stroke-linejoin:round"
       d="M 8.9871874,8.4158993 H 9.1448573 V 10.386778 H 8.9871874 Z" />
    <path
       id="path1060"
       style="stroke:none;stroke-width:0.302202;stroke-linejoin:round"
       d="m 10.169712,8.4158993 h 0.15767 v 1.9708787 h -0.15767 z" />
    <g
       transform="matrix(0.26458333,0,0,0.26458333,-0.0970912,-0.19656309)"
       id="text45942"
       style="font-weight:bold;font-size:12px;line-height:1.25;font-family:Poppins;-inkscape-font-specification:'Poppins Bold';white-space:pre;shape-inside:url(#rect45944);stroke:none" />
    <g
       aria-label="8"
       id="text63760"
       style="font-weight:bold;font-size:13.9984px;line-height:1.25;font-family:Poppins;-inkscape-font-specification:'Poppins Bold';stroke:none;stroke-width:0.194422">
      <path
         d="m 17.6121,5.0541827 q -1.315849,-0.69992 -1.315849,-2.1977487 0,-0.7559136 0.391955,-1.3718432 0.391955,-0.62992801 1.189864,-0.9938864 0.797909,-0.3779568 1.959776,-0.3779568 1.161867,0 1.945777,0.3779568 0.797909,0.36395839 1.189864,0.9938864 0.391956,0.6159296 0.391956,1.3718432 0,0.7559135 -0.363959,1.3158495 -0.34996,0.559936 -0.951891,0.8818992 0.755914,0.3639584 1.161867,1.0078848 0.405954,0.629928 0.405954,1.4838304 0,0.9938863 -0.503943,1.7218031 -0.503942,0.7139184 -1.371843,1.091875 -0.853902,0.377957 -1.903782,0.377957 -1.04988,0 -1.917781,-0.377957 Q 17.066163,9.9816194 16.56222,9.267701 16.058278,8.5397842 16.058278,7.5458979 q 0,-0.8679008 0.405954,-1.4978288 0.405953,-0.6439264 1.147868,-0.9938864 z m 3.429608,-1.8337904 q 0,-0.5739343 -0.335961,-0.8818991 Q 20.383783,2.01653 19.837846,2.01653 q -0.545938,0 -0.881899,0.3219632 -0.321964,0.3219632 -0.321964,0.8958975 0,0.5459376 0.335962,0.8679008 0.335962,0.3079648 0.867901,0.3079648 0.531939,0 0.867901,-0.3219632 0.335961,-0.3219632 0.335961,-0.8679008 z m -1.203862,2.869672 q -0.657925,0 -1.063879,0.3639584 -0.405953,0.34996 -0.405953,0.979888 0,0.5879328 0.391955,0.9658895 0.405954,0.3779568 1.077877,0.3779568 0.671923,0 1.04988,-0.3779568 0.391955,-0.3779567 0.391955,-0.9658895 0,-0.6159296 -0.405954,-0.979888 -0.391955,-0.3639584 -1.035881,-0.3639584 z"
         id="path1057"
         style="stroke:none" />
    </g>
  </g>
</svg>
